HIERARCHY
ROOT hip
{
	OFFSET 0.000000 0.000000 0.000000
	CHANNELS 6 Xposition Yposition Zposition Xrotation Zrotation Yrotation 
	JOINT abdomen
	{
		OFFSET 0.000000 3.422050 0.000000
		CHANNELS 3 Xrotation Zrotation Yrotation 
		JOINT chest
		{
			OFFSET 0.000000 8.486693 -0.684411
			CHANNELS 3 Xrotation Zrotation Yrotation 
			JOINT neck
			{
				OFFSET 0.000000 10.266162 -0.273764
				CHANNELS 3 Xrotation Zrotation Yrotation 
				JOINT head
				{
					OFFSET 0.000000 3.148285 0.000000
					CHANNELS 3 Xrotation Zrotation Yrotation 
					End Site
					{
						OFFSET 0.000000 3.148289 0.000000
					}
				}
			}
			JOINT lCollar
			{
				OFFSET 3.422053 6.707223 -0.821293
				CHANNELS 3 Yrotation Zrotation Xrotation 
				JOINT lShldr
				{
					OFFSET 3.285171 0.000000 0.000000
					CHANNELS 3 Zrotation Yrotation Xrotation 
					JOINT lForeArm
					{
						OFFSET 10.129278 0.000000 0.000000
						CHANNELS 3 Yrotation Zrotation Xrotation 
						JOINT lHand
						{
							OFFSET 8.486692 0.000000 0.000000
							CHANNELS 3 Zrotation Yrotation Xrotation 
							End Site
							{
								OFFSET 4.106464 0.000000 0.000000
							}
						}
					}
				}
			}
			JOINT rCollar
			{
				OFFSET -3.558935 6.707223 -0.821293
				CHANNELS 3 Yrotation Zrotation Xrotation 
				JOINT rShldr
				{
					OFFSET -3.148289 0.000000 0.000000
					CHANNELS 3 Zrotation Yrotation Xrotation 
					JOINT rForeArm
					{
						OFFSET -10.266159 0.000000 0.000000
						CHANNELS 3 Yrotation Zrotation Xrotation 
						JOINT rHand
						{
							OFFSET -8.349810 0.000000 0.000000
							CHANNELS 3 Zrotation Yrotation Xrotation 
							End Site
							{
								OFFSET -4.106464 0.000000 0.000000
							}
						}
					}
				}
			}
		}
	}
	JOINT lThigh
	{
		OFFSET 5.338403 -1.642589 1.368821
		CHANNELS 3 Xrotation Zrotation Yrotation 
		JOINT lShin
		{
			OFFSET -2.053232 -20.121670 0.000000
			CHANNELS 3 Xrotation Zrotation Yrotation 
			JOINT lFoot
			{
				OFFSET 0.000000 -19.300380 -1.231939
				CHANNELS 3 Xrotation Yrotation Zrotation 
				End Site
				{
					OFFSET 0.000000 -2.463878 4.653993
				}
			}
		}
	}
	JOINT rThigh
	{
		OFFSET -5.338403 -1.642589 1.368821
		CHANNELS 3 Xrotation Zrotation Yrotation 
		JOINT rShin
		{
			OFFSET 2.053232 -20.121670 0.000000
			CHANNELS 3 Xrotation Zrotation Yrotation 
			JOINT rFoot
			{
				OFFSET 0.000000 -19.300380 -1.231939
				CHANNELS 3 Xrotation Yrotation Zrotation 
				End Site
				{
					OFFSET 0.000000 -2.463878 4.653993
				}
			}
		}
	}
}
MOTION
Frames: 15
Frame Time: 0.033264
0.000000 43.528500 0.000000 0.000000 0.000000 0.000000 0.000000 0.000000 0.000000 0.000000 0.000000 0.000000 0.000000 0.000000 0.000000 0.000000 0.000000 0.000000 0.000000 0.000000 0.000000 0.000000 0.000000 0.000000 0.000000 0.000000 0.000000 0.000000 0.000000 0.000000 0.000000 0.000000 0.000000 0.000000 0.000000 0.000000 0.000000 0.000000 0.000000 0.000000 0.000000 0.000000 0.000000 0.000000 0.000000 0.000000 0.000000 0.000000 0.000000 0.000000 0.000000 0.000000 0.000000 0.000000 0.000000 0.000000 0.000000 0.000000 0.000000 0.000000 
0.802005 10.886883 0.000000 0.000000 0.000000 0.000000 -0.344328 -0.723901 -0.576606 -0.432937 -0.625943 -0.450519 12.997690 3.999099 2.996960 0.000000 0.000000 0.000000 0.278464 -8.002677 -0.003308 -63.016262 -4.003141 -0.001559 -8.002649 0.000000 0.000000 -7.000325 0.000000 0.000000 -0.002182 7.999156 -0.194408 -111.245728 72.001671 179.563736 7.999141 0.000000 0.000000 6.996825 0.000000 0.000000 -70.222412 5.868350 -13.169911 159.929504 7.041218 3.836659 35.778309 7.660037 -10.142241 -70.223045 -5.873183 13.169117 159.929443 -7.038393 -3.840707 35.778576 -7.664423 10.140018 
0.802005 10.886883 0.000000 0.000000 0.000000 0.000000 -0.344328 -0.723901 -0.576606 -0.432937 -0.625943 -0.450519 12.989644 4.044890 3.150455 0.000000 0.000000 0.000000 0.278464 -8.002678 -0.003308 -63.016262 -4.003141 -0.001559 -8.002649 0.000000 0.000000 -7.000325 0.000000 0.000000 -0.002182 7.999157 -0.194408 -111.245735 72.001678 179.563736 7.999142 0.000000 0.000000 6.996825 0.000000 0.000000 -70.222412 5.868350 -13.169911 159.929504 7.041218 3.836659 35.778309 7.660038 -10.142241 -70.223045 -5.873183 13.169117 159.929443 -7.038393 -3.840707 35.778576 -7.664423 10.140018 
0.802005 10.886883 0.000000 0.000000 0.000000 0.000000 -0.344328 -0.723901 -0.576606 -0.432937 -0.625943 -0.450519 12.981725 4.090717 3.303991 0.000000 0.000000 0.000000 0.278464 -8.002678 -0.003308 -63.016270 -4.003141 -0.001559 -8.002650 0.000000 0.000000 -7.000325 0.000000 0.000000 -0.002182 7.999156 -0.194408 -111.245728 72.001671 179.563736 7.999142 0.000000 0.000000 6.996825 0.000000 0.000000 -70.222412 5.868349 -13.169912 159.929504 7.041219 3.836659 35.778313 7.660037 -10.142241 -70.223045 -5.873184 13.169117 159.929428 -7.038393 -3.840707 35.778584 -7.664424 10.140020 
0.802005 10.886883 0.000000 0.000000 0.000000 0.000000 -0.344328 -0.723901 -0.576606 -0.432937 -0.625943 -0.450519 12.973923 4.136575 3.457568 0.000000 0.000000 0.000000 0.278464 -8.002678 -0.003308 -63.016262 -4.003141 -0.001559 -8.002649 0.000000 0.000000 -7.000325 0.000000 0.000000 -0.002182 7.999157 -0.194408 -111.245728 72.001686 179.563751 7.999142 0.000000 0.000000 6.996825 0.000000 0.000000 -70.222412 5.868351 -13.169912 159.929504 7.041218 3.836659 35.778309 7.660038 -10.142241 -70.223045 -5.873183 13.169117 159.929443 -7.038393 -3.840707 35.778576 -7.664423 10.140018 
0.802005 10.886883 0.000000 0.000000 0.000000 0.000000 -0.344328 -0.723900 -0.576606 -0.432937 -0.625943 -0.450518 12.966240 4.182464 3.611185 0.000000 0.000000 0.000000 0.278464 -8.002676 -0.003308 -63.016262 -4.003141 -0.001559 -8.002649 0.000000 0.000000 -7.000325 0.000000 0.000000 -0.002182 7.999156 -0.194408 -111.245728 72.001671 179.563736 7.999141 0.000000 0.000000 6.996824 0.000000 0.000000 -70.222412 5.868349 -13.169911 159.929504 7.041218 3.836659 35.778309 7.660036 -10.142240 -70.223045 -5.873183 13.169116 159.929443 -7.038393 -3.840707 35.778576 -7.664423 10.140018 
0.802005 10.886883 0.000000 0.000000 0.000000 0.000000 -0.344328 -0.723901 -0.576606 -0.432937 -0.625942 -0.450519 12.958679 4.228385 3.764841 0.000000 0.000000 0.000000 0.278464 -8.002677 -0.003308 -63.016262 -4.003141 -0.001559 -8.002648 0.000000 0.000000 -7.000325 0.000000 0.000000 -0.002182 7.999156 -0.194408 -111.245705 72.001663 179.563751 7.999141 0.000000 0.000000 6.996825 0.000000 0.000000 -70.222404 5.868349 -13.169910 159.929504 7.041218 3.836658 35.778309 7.660037 -10.142241 -70.223038 -5.873184 13.169116 159.929428 -7.038392 -3.840707 35.778576 -7.664423 10.140018 
0.802005 10.886883 0.000000 0.000000 0.000000 0.000000 -0.344328 -0.723901 -0.576606 -0.432937 -0.625943 -0.450519 12.951244 4.274338 3.918539 0.000000 0.000000 0.000000 0.278464 -8.002677 -0.003308 -63.016262 -4.003141 -0.001559 -8.002649 0.000000 0.000000 -7.000325 0.000000 0.000000 -0.002182 7.999156 -0.194408 -111.245728 72.001671 179.563736 7.999141 0.000000 0.000000 6.996825 0.000000 0.000000 -70.222412 5.868350 -13.169911 159.929504 7.041218 3.836659 35.778309 7.660037 -10.142241 -70.223045 -5.873183 13.169117 159.929443 -7.038393 -3.840707 35.778576 -7.664423 10.140018 
0.802005 10.886883 0.000000 0.000000 0.000000 0.000000 -0.344328 -0.723901 -0.576606 -0.432937 -0.625943 -0.450519 12.943926 4.320320 4.072273 0.000000 0.000000 0.000000 0.278464 -8.002677 -0.003308 -63.016262 -4.003141 -0.001559 -8.002649 0.000000 0.000000 -7.000325 0.000000 0.000000 -0.002182 7.999156 -0.194408 -111.245735 72.001678 179.563736 7.999141 0.000000 0.000000 6.996825 0.000000 0.000000 -70.222412 5.868350 -13.169911 159.929504 7.041218 3.836659 35.778309 7.660038 -10.142241 -70.223045 -5.873184 13.169117 159.929443 -7.038393 -3.840707 35.778576 -7.664423 10.140018 
0.802005 10.886883 0.000000 0.000000 0.000000 0.000000 -0.344328 -0.723901 -0.576606 -0.432937 -0.625943 -0.450519 12.936729 4.366333 4.226047 0.000000 0.000000 0.000000 0.278464 -8.002677 -0.003308 -63.016262 -4.003141 -0.001559 -8.002649 0.000000 0.000000 -7.000325 0.000000 0.000000 -0.002182 7.999157 -0.194408 -111.245728 72.001671 179.563736 7.999141 0.000000 0.000000 6.996825 0.000000 0.000000 -70.222412 5.868351 -13.169912 159.929504 7.041218 3.836659 35.778309 7.660037 -10.142241 -70.223045 -5.873183 13.169117 159.929428 -7.038393 -3.840707 35.778576 -7.664423 10.140018 
0.802005 10.886883 0.000000 0.000000 0.000000 0.000000 -0.344328 -0.723901 -0.576606 -0.432937 -0.625943 -0.450519 12.929657 4.412375 4.379860 0.000000 0.000000 0.000000 0.278464 -8.002678 -0.003308 -63.016262 -4.003141 -0.001559 -8.002649 0.000000 0.000000 -7.000325 0.000000 0.000000 -0.002182 7.999156 -0.194408 -111.245728 72.001678 179.563751 7.999142 0.000000 0.000000 6.996825 0.000000 0.000000 -70.222412 5.868351 -13.169912 159.929504 7.041218 3.836659 35.778313 7.660038 -10.142241 -70.223045 -5.873183 13.169117 159.929443 -7.038393 -3.840707 35.778580 -7.664423 10.140018 
0.802005 10.886883 0.000000 0.000000 0.000000 0.000000 -0.344328 -0.723901 -0.576606 -0.432937 -0.625943 -0.450519 12.922706 4.458446 4.533710 0.000000 0.000000 0.000000 0.278464 -8.002676 -0.003308 -63.016254 -4.003141 -0.001559 -8.002649 0.000000 0.000000 -7.000325 0.000000 0.000000 -0.002182 7.999156 -0.194408 -111.245728 72.001663 179.563736 7.999140 0.000000 0.000000 6.996825 0.000000 0.000000 -70.222412 5.868350 -13.169911 159.929504 7.041218 3.836659 35.778309 7.660037 -10.142241 -70.223045 -5.873182 13.169116 159.929443 -7.038393 -3.840707 35.778576 -7.664423 10.140018 
0.802005 10.886883 0.000000 0.000000 0.000000 0.000000 -0.344328 -0.723901 -0.576606 -0.432937 -0.625943 -0.450519 12.915875 4.504545 4.687597 0.000000 0.000000 0.000000 0.278464 -8.002677 -0.003308 -63.016254 -4.003140 -0.001559 -8.002648 0.000000 0.000000 -7.000325 0.000000 0.000000 -0.002182 7.999156 -0.194408 -111.245728 72.001671 179.563736 7.999140 0.000000 0.000000 6.996825 0.000000 0.000000 -70.222404 5.868349 -13.169910 159.929504 7.041218 3.836659 35.778309 7.660036 -10.142240 -70.223045 -5.873183 13.169117 159.929428 -7.038392 -3.840707 35.778576 -7.664423 10.140018 
0.802005 10.886883 0.000000 0.000000 0.000000 0.000000 -0.344328 -0.723901 -0.576606 -0.432937 -0.625943 -0.450519 12.909167 4.550672 4.841522 0.000000 0.000000 0.000000 0.278464 -8.002676 -0.003308 -63.016262 -4.003141 -0.001559 -8.002649 0.000000 0.000000 -7.000325 0.000000 0.000000 -0.002182 7.999156 -0.194408 -111.245728 72.001671 179.563736 7.999141 0.000000 0.000000 6.996825 0.000000 0.000000 -70.222412 5.868350 -13.169911 159.929504 7.041218 3.836659 35.778309 7.660037 -10.142241 -70.223045 -5.873183 13.169117 159.929443 -7.038393 -3.840707 35.778576 -7.664423 10.140018 
0.802005 10.886883 0.000000 0.000000 0.000000 0.000000 -0.344328 -0.723901 -0.576606 -0.432937 -0.625943 -0.450519 12.902585 4.596828 4.995484 0.000000 0.000000 0.000000 0.278464 -8.002677 -0.003308 -63.016262 -4.003141 -0.001559 -8.002649 0.000000 0.000000 -7.000325 0.000000 0.000000 -0.002182 7.999156 -0.194408 -111.245728 72.001671 179.563736 7.999141 0.000000 0.000000 6.996825 0.000000 0.000000 -70.222412 5.868350 -13.169911 159.929504 7.041218 3.836659 35.778309 7.660037 -10.142241 -70.223045 -5.873183 13.169117 159.929443 -7.038393 -3.840707 35.778576 -7.664423 10.140018 
